<?xml version="1.0" encoding="UTF-8" standalone="no"?>
<svg width="100%" height="100%" viewBox="0 0 877 1047" version="1.1" xmlns="http://www.w3.org/2000/svg" style="fill-rule:evenodd;clip-rule:evenodd;stroke-linejoin:round;stroke-miterlimit:2;">
    <g transform="matrix(1,0,0,1,-243.543295,-16.56254)">
        <g id="path6648" transform="matrix(5.861541,0,0,5.861541,603.729751,-3084.172728)">
            <path d="M-45.89,585.594L5.801,688.98L2.115,687.306C-24.221,674.581 -43.173,653.363 -46.355,623.737C-47.23,615.612 -46.775,600.731 -45.891,585.594L-45.89,585.594ZM73.195,623.103C70.82,645.239 60.198,662.316 44.474,674.929L22.826,632.589C21.116,629.243 18.404,627.029 18.404,627.029C25.151,629.151 33.138,634.336 46.09,634.336C58.477,634.336 69.004,626.999 73.195,623.103L73.195,623.103ZM-26.136,546.48C-15.049,544.924 -1.439,543.614 13.356,543.614C37.256,543.614 58.062,547.032 69.868,549.344L70.515,556.086C63.647,559.833 54.536,564.116 41.513,563.434C24.614,562.548 15.299,553.84 1.196,553.1C-4.001,552.828 -9.016,553.468 -13.726,554.87L-26.462,546.526L-26.134,546.469L-26.136,546.48ZM39.802,695.743L0.105,617.756C4.395,614.931 9.371,613.275 14.889,613.275C26.114,613.275 34.19,620.817 46.09,620.817C53.252,620.817 65.822,615.31 73.521,609.043L73.328,599.221C72.96,589.31 72.249,578.331 71.502,568.418C64.528,572.28 55.168,577.025 41.514,576.308C24.615,575.423 14.89,566.005 0.787,565.266C-8.107,564.801 -16.985,566.605 -24.186,570.707L-24.243,562.962C-24.243,561.774 -24.73,560.595 -25.748,559.827L-41.263,548.139C-41.58,547.918 -41.999,547.793 -42.414,547.793C-43.488,547.793 -44.357,548.663 -44.357,549.736L-44.357,569.164C-44.357,570.442 -43.715,571.545 -42.757,572.253L-36.464,576.922L27.581,702.021C22.959,704.105 18.194,705.944 13.334,707.541C-24.304,695.165 -56.29,668.24 -60.912,625.298C-62.855,607.191 -59.025,561.962 -57.403,544.466C-57.018,540.266 -54.464,536.742 -50.434,535.9C-39.403,533.599 -15.121,528.997 13.334,528.997C41.795,528.997 66.071,533.599 77.102,535.9C81.137,536.742 83.689,540.266 84.076,544.466C85.698,561.962 89.528,607.191 87.58,625.298C84.098,657.674 65.069,680.944 39.78,695.74L39.802,695.743Z" style="fill:rgb(0,56,149);"/>
        </g>
    </g>
</svg>
